<svg xmlns="http://www.w3.org/2000/svg" xmlns:xlink="http://www.w3.org/1999/xlink" viewBox="0 0 155.86 155.86"><defs><style>.cls-1{fill:#adcee8;}.cls-2{fill:#3e8de6;}.cls-3{fill:#2072d4;}.cls-4{fill:#8dc1e2;}.cls-5{fill:#2876da;}.cls-6{fill:#124ad4;}.cls-7{fill:#3f90e9;}.cls-8{fill:#fff;}.cls-10,.cls-11,.cls-12,.cls-13,.cls-14,.cls-15,.cls-16,.cls-17,.cls-9{fill:none;stroke-miterlimit:10;}.cls-10,.cls-11,.cls-12,.cls-15,.cls-16,.cls-17,.cls-9{stroke-width:2px;}.cls-9{stroke:url(#Gradiente_sem_nome_10);}.cls-10{stroke:url(#Gradiente_sem_nome_10-2);}.cls-11{stroke:url(#Gradiente_sem_nome_10-3);}.cls-12{stroke:url(#Gradiente_sem_nome_10-4);}.cls-13,.cls-14{stroke-width:5px;}.cls-13{stroke:url(#Gradiente_sem_nome_25);}.cls-14{stroke:url(#Gradiente_sem_nome_32);}.cls-15{stroke:url(#Gradiente_sem_nome_15);}.cls-16{stroke:url(#Gradiente_sem_nome_15-2);}.cls-17{stroke:url(#Gradiente_sem_nome_15-3);}.cls-18{fill:#3e9b82;}</style><linearGradient id="Gradiente_sem_nome_10" x1="57.7" y1="108.5" x2="57.7" y2="108.5" gradientTransform="matrix(1, 0, 0, -1, 0, 162)" gradientUnits="userSpaceOnUse"><stop offset="0" stop-color="#385c6b"/><stop offset="0.29" stop-color="#437478"/><stop offset="0.91" stop-color="#60b19a"/><stop offset="1" stop-color="#64bb9f"/></linearGradient><linearGradient id="Gradiente_sem_nome_10-2" x1="59.44" y1="106.6" x2="59.44" y2="106.6" xlink:href="#Gradiente_sem_nome_10"/><linearGradient id="Gradiente_sem_nome_10-3" x1="56.99" y1="114.57" x2="56.99" y2="114.57" xlink:href="#Gradiente_sem_nome_10"/><linearGradient id="Gradiente_sem_nome_10-4" x1="70.28" y1="101.54" x2="70.28" y2="101.54" xlink:href="#Gradiente_sem_nome_10"/><linearGradient id="Gradiente_sem_nome_25" x1="70.01" y1="91" x2="120.02" y2="91" gradientTransform="matrix(1, 0, 0, -1, 0, 162)" gradientUnits="userSpaceOnUse"><stop offset="0" stop-color="#fff"/><stop offset="0.98" stop-color="#fff"/></linearGradient><linearGradient id="Gradiente_sem_nome_32" x1="45.29" y1="78.32" x2="96.6" y2="78.32" gradientTransform="matrix(1, 0, 0, -1, 0, 162)" gradientUnits="userSpaceOnUse"><stop offset="0" stop-color="#fff"/><stop offset="0.28" stop-color="#fff"/></linearGradient><linearGradient id="Gradiente_sem_nome_15" x1="116.16" y1="51.33" x2="116.16" y2="51.33" gradientTransform="matrix(1, 0, 0, -1, 0, 162)" gradientUnits="userSpaceOnUse"><stop offset="0" stop-color="#41a185"/><stop offset="0.28" stop-color="#378979"/><stop offset="0.86" stop-color="#1e4c5a"/><stop offset="1" stop-color="#183c52"/></linearGradient><linearGradient id="Gradiente_sem_nome_15-2" x1="53.1" y1="112.1" x2="53.1" y2="112.1" xlink:href="#Gradiente_sem_nome_15"/><linearGradient id="Gradiente_sem_nome_15-3" x1="56.05" y1="115.34" x2="56.05" y2="115.34" xlink:href="#Gradiente_sem_nome_15"/></defs><g id="Camada_1" data-name="Camada 1"><polygon class="cls-1" points="77.93 0 23.1 22.71 77.93 77.53 77.93 0"/><polygon class="cls-2" points="132.75 22.71 77.93 0 77.93 77.53 132.75 22.71"/><polygon class="cls-3" points="155.69 77.53 133.03 22.82 132.75 22.71 77.93 77.53 155.69 77.53"/><polygon class="cls-4" points="23.1 22.71 22.82 22.82 0.16 77.53 77.93 77.53 23.1 22.71"/><polygon class="cls-5" points="0.16 77.53 0 77.93 22.71 132.75 77.93 77.53 0.16 77.53"/><polygon class="cls-2" points="155.69 77.53 77.93 77.53 133.15 132.75 155.86 77.93 155.69 77.53"/><polyline class="cls-3" points="77.93 155.86 22.82 133.03 22.7 132.75 77.93 77.53 77.93 155.86"/><polyline class="cls-6" points="77.93 155.86 77.93 77.53 133.15 132.75 133.03 133.03 77.93 155.86"/><polygon class="cls-7" points="125.88 77.33 111.85 111.24 109.98 112.02 104.76 114.18 90.2 120.2 87.63 121.27 78.32 125.11 77.93 125.28 67.54 120.98 60.43 118.04 56.19 116.28 44.09 111.27 44.02 111.24 33.75 86.44 29.98 77.33 44.02 43.41 44.56 43.19 63.01 35.55 77.9 29.39 77.93 29.38 82.14 31.12 89.26 34.06 99.97 38.5 107.52 41.63 109.61 42.49 111.85 43.41 118.46 59.37 121.38 66.43 125.88 77.33"/></g><g id="Camada_2" data-name="Camada 2"><polygon class="cls-8" points="75.56 67.62 102.79 94.01 108.59 94.01 81.69 67.62 75.56 67.62"/><polygon class="cls-8" points="64.19 56.6 75.56 67.62 95.27 67.62 95.27 56.6 64.19 56.6"/><path class="cls-8" d="M67.62,57.94,79,69c-.31-8.94,19.71-11,19.71-11Z" transform="translate(-3.43 -1.34)"/><polygon class="cls-8" points="85.52 82.99 58.29 56.6 52.49 56.6 79.4 82.99 85.52 82.99"/><polygon class="cls-8" points="65.94 82.99 85.52 82.99 96.9 94.01 66.3 94.01 65.81 94.01 57.29 94.01 57.29 82.99 65.94 82.99"/><path class="cls-8" d="M100.33,95.35,89,84.33c.31,9-19.71,11-19.71,11Z" transform="translate(-3.43 -1.34)"/><path class="cls-9" d="M57.7,53.5" transform="translate(-3.43 -1.34)"/><path class="cls-10" d="M59.44,55.4" transform="translate(-3.43 -1.34)"/><path class="cls-11" d="M57,47.43" transform="translate(-3.43 -1.34)"/><path class="cls-12" d="M70.28,60.46" transform="translate(-3.43 -1.34)"/><path class="cls-13" d="M70.83,46c.74-.25,1.48-.49,2.25-.71A35.5,35.5,0,0,1,82.65,44c19.25,0,34.87,15.32,34.87,34.21A33,33,0,0,1,110.32,99" transform="translate(-3.43 -1.34)"/><path class="cls-14" d="M95.68,109.92a35.35,35.35,0,0,1-13,2.47c-19.25,0-34.87-15.31-34.87-34.21a33.75,33.75,0,0,1,10-23.93" transform="translate(-3.43 -1.34)"/><path class="cls-15" d="M116.16,110.67" transform="translate(-3.43 -1.34)"/><path class="cls-16" d="M53.1,49.9" transform="translate(-3.43 -1.34)"/><path class="cls-17" d="M56.05,46.66" transform="translate(-3.43 -1.34)"/><polygon class="cls-8" points="87.92 102.3 105.16 102.54 95.85 115.35 87.92 102.3"/><polygon class="cls-8" points="66.42 37.11 73.2 50.76 56.27 49 66.42 37.11"/><polygon class="cls-8" points="59.71 57.97 52.95 51.41 52.29 52.11 50.27 54.49 53.4 57.42 59.71 57.97"/><path class="cls-18" d="M114.71,98.18a35.12,35.12,0,0,1-2.37,3.39C111.79,101.05,114.71,98.18,114.71,98.18Z" transform="translate(-3.43 -1.34)"/><path class="cls-18" d="M105,95.35" transform="translate(-3.43 -1.34)"/><polygon class="cls-8" points="102.33 93.56 108.84 100.15 111.28 96.83 106.57 92.1 102.33 93.56"/></g></svg>