<?xml version="1.0" encoding="utf-8"?>
<!-- Generator: Adobe Illustrator 25.2.0, SVG Export Plug-In . SVG Version: 6.00 Build 0)  -->
<svg version="1.1" id="Camada_1" xmlns="http://www.w3.org/2000/svg" xmlns:xlink="http://www.w3.org/1999/xlink" x="0px" y="0px"
	 viewBox="0 0 64 64" style="enable-background:new 0 0 64 64;" xml:space="preserve">
<style type="text/css">
	.st0{fill:url(#SVGID_1_);}
	.st1{fill:url(#SVGID_2_);}
	.st2{fill:url(#SVGID_3_);}
	.st3{fill:url(#SVGID_4_);}
	.st4{fill:url(#SVGID_5_);}
	.st5{fill:url(#SVGID_6_);}
	.st6{fill:none;stroke:url(#SVGID_7_);stroke-width:2;stroke-miterlimit:10;}
	.st7{fill:none;stroke:url(#SVGID_8_);stroke-width:2;stroke-miterlimit:10;}
	.st8{fill:none;stroke:url(#SVGID_9_);stroke-width:2;stroke-miterlimit:10;}
	.st9{fill:none;stroke:url(#SVGID_10_);stroke-width:2;stroke-miterlimit:10;}
	.st10{fill:none;stroke:url(#SVGID_11_);stroke-width:5;stroke-miterlimit:10;}
	.st11{fill:none;stroke:url(#SVGID_12_);stroke-width:5;stroke-miterlimit:10;}
	.st12{fill:none;stroke:url(#SVGID_13_);stroke-width:2;stroke-miterlimit:10;}
	.st13{fill:none;stroke:url(#SVGID_14_);stroke-width:2;stroke-miterlimit:10;}
	.st14{fill:none;stroke:url(#SVGID_15_);stroke-width:2;stroke-miterlimit:10;}
	.st15{fill:url(#SVGID_16_);}
	.st16{fill:url(#SVGID_17_);}
	.st17{fill:url(#SVGID_18_);}
	.st18{fill:#3E9B82;}
</style>
<g>
	<g>
		<g>
			<linearGradient id="SVGID_1_" gradientUnits="userSpaceOnUse" x1="53.4987" y1="47.0388" x2="30.3847" y2="23.7306">
				<stop  offset="0" style="stop-color:#3E9B82"/>
				<stop  offset="0.177" style="stop-color:#3C957F"/>
				<stop  offset="0.4035" style="stop-color:#358577"/>
				<stop  offset="0.657" style="stop-color:#2B6B6A"/>
				<stop  offset="0.9283" style="stop-color:#1C4758"/>
				<stop  offset="1" style="stop-color:#183C52"/>
			</linearGradient>
			<polygon class="st0" points="29.03,25.07 50.32,45.7 54.85,45.7 33.82,25.07 			"/>
			
				<linearGradient id="SVGID_2_" gradientUnits="userSpaceOnUse" x1="-1141.6733" y1="20.7682" x2="-1168.6387" y2="20.7682" gradientTransform="matrix(-1 0 0 1 -1116.4282 0)">
				<stop  offset="0.0128" style="stop-color:#3D9380"/>
				<stop  offset="0.3922" style="stop-color:#347B74"/>
				<stop  offset="1" style="stop-color:#224D5C"/>
			</linearGradient>
			<polygon class="st1" points="20.14,16.46 29.03,25.07 44.44,25.07 44.44,16.46 			"/>
			
				<linearGradient id="SVGID_3_" gradientUnits="userSpaceOnUse" x1="-1160.8707" y1="20.7682" x2="-1136.5691" y2="20.7682" gradientTransform="matrix(-1 0 0 1 -1116.4282 0)">
				<stop  offset="0" style="stop-color:#41A185"/>
				<stop  offset="0.4476" style="stop-color:#38897A"/>
				<stop  offset="1" style="stop-color:#2C6669"/>
			</linearGradient>
			<path class="st2" d="M20.14,16.46l8.89,8.61c-0.24-6.99,15.41-8.61,15.41-8.61H20.14z"/>
		</g>
		<g>
			
				<linearGradient id="SVGID_4_" gradientUnits="userSpaceOnUse" x1="935.4963" y1="-331.6612" x2="940.8887" y2="-337.0988" gradientTransform="matrix(1 0 0 -1 -905.0849 -298.33)">
				<stop  offset="0" style="stop-color:#3E9B82"/>
				<stop  offset="0.2929" style="stop-color:#348376"/>
				<stop  offset="0.9087" style="stop-color:#1C4657"/>
				<stop  offset="1" style="stop-color:#183C52"/>
			</linearGradient>
			<polygon class="st3" points="36.82,37.09 15.53,16.46 11,16.46 32.03,37.09 			"/>
			
				<linearGradient id="SVGID_5_" gradientUnits="userSpaceOnUse" x1="-1155.6359" y1="41.3921" x2="-1121.2776" y2="41.3921" gradientTransform="matrix(-1 0 0 1 -1116.4282 0)">
				<stop  offset="0" style="stop-color:#3D9480"/>
				<stop  offset="0.3572" style="stop-color:#347C74"/>
				<stop  offset="1" style="stop-color:#204859"/>
			</linearGradient>
			<polygon class="st4" points="21.51,37.09 36.82,37.09 45.71,45.7 21.79,45.7 21.41,45.7 14.75,45.7 14.75,37.09 			"/>
			
				<linearGradient id="SVGID_6_" gradientUnits="userSpaceOnUse" x1="939.9522" y1="-342.7951" x2="951.0583" y2="-332.3289" gradientTransform="matrix(1 0 0 -1 -905.0849 -298.33)">
				<stop  offset="0" style="stop-color:#41A185"/>
				<stop  offset="0.3338" style="stop-color:#388979"/>
				<stop  offset="1" style="stop-color:#234F5D"/>
			</linearGradient>
			<path class="st5" d="M45.71,45.7l-8.89-8.61c0.24,6.99-15.41,8.61-15.41,8.61H45.71z"/>
		</g>
	</g>
</g>
<linearGradient id="SVGID_7_" gradientUnits="userSpaceOnUse" x1="12.3889" y1="12.9897" x2="12.3889" y2="12.9897">
	<stop  offset="2.024560e-07" style="stop-color:#385C6B"/>
	<stop  offset="0.2929" style="stop-color:#437478"/>
	<stop  offset="0.9087" style="stop-color:#60B19A"/>
	<stop  offset="1" style="stop-color:#64BB9F"/>
</linearGradient>
<path class="st6" d="M12.39,12.99"/>
<linearGradient id="SVGID_8_" gradientUnits="userSpaceOnUse" x1="13.747" y1="14.468" x2="13.747" y2="14.468">
	<stop  offset="2.024560e-07" style="stop-color:#385C6B"/>
	<stop  offset="0.2929" style="stop-color:#437478"/>
	<stop  offset="0.9087" style="stop-color:#60B19A"/>
	<stop  offset="1" style="stop-color:#64BB9F"/>
</linearGradient>
<path class="st7" d="M13.75,14.47"/>
<linearGradient id="SVGID_9_" gradientUnits="userSpaceOnUse" x1="11.8303" y1="8.2374" x2="11.8303" y2="8.2374">
	<stop  offset="2.024560e-07" style="stop-color:#385C6B"/>
	<stop  offset="0.2929" style="stop-color:#437478"/>
	<stop  offset="0.9087" style="stop-color:#60B19A"/>
	<stop  offset="1" style="stop-color:#64BB9F"/>
</linearGradient>
<path class="st8" d="M11.83,8.24"/>
<linearGradient id="SVGID_10_" gradientUnits="userSpaceOnUse" x1="22.2239" y1="18.4342" x2="22.2239" y2="18.4342">
	<stop  offset="2.024560e-07" style="stop-color:#385C6B"/>
	<stop  offset="0.2929" style="stop-color:#437478"/>
	<stop  offset="0.9087" style="stop-color:#60B19A"/>
	<stop  offset="1" style="stop-color:#64BB9F"/>
</linearGradient>
<path class="st9" d="M22.22,18.43"/>
<linearGradient id="SVGID_11_" gradientUnits="userSpaceOnUse" x1="21.8214" y1="26.5642" x2="61.6528" y2="26.5642">
	<stop  offset="0" style="stop-color:#3E9B82"/>
	<stop  offset="0.9777" style="stop-color:#3E9B82"/>
</linearGradient>
<path class="st10" d="M22.65,7.12c0.58-0.2,1.16-0.39,1.76-0.56c2.38-0.66,4.89-1.02,7.48-1.02c15.05,0,27.26,11.97,27.26,26.74
	c0,6.18-2.04,11.72-5.63,16.25"/>
<linearGradient id="SVGID_12_" gradientUnits="userSpaceOnUse" x1="2.1415" y1="36.6605" x2="42.9985" y2="36.6605">
	<stop  offset="0" style="stop-color:#41A185"/>
	<stop  offset="0.2773" style="stop-color:#378979"/>
	<stop  offset="0.8602" style="stop-color:#1E4C5A"/>
	<stop  offset="1" style="stop-color:#183C52"/>
</linearGradient>
<path class="st11" d="M42.08,57.09c-3.15,1.24-6.58,1.93-10.18,1.93c-15.05,0-27.26-11.97-27.26-26.74c0-7.28,2.97-13.89,7.79-18.71
	"/>
<linearGradient id="SVGID_13_" gradientUnits="userSpaceOnUse" x1="58.0944" y1="57.6783" x2="58.0944" y2="57.6783">
	<stop  offset="0" style="stop-color:#41A185"/>
	<stop  offset="0.2773" style="stop-color:#378979"/>
	<stop  offset="0.8602" style="stop-color:#1E4C5A"/>
	<stop  offset="1" style="stop-color:#183C52"/>
</linearGradient>
<path class="st12" d="M58.09,57.68"/>
<linearGradient id="SVGID_14_" gradientUnits="userSpaceOnUse" x1="8.7872" y1="10.1701" x2="8.7872" y2="10.1701">
	<stop  offset="0" style="stop-color:#41A185"/>
	<stop  offset="0.2773" style="stop-color:#378979"/>
	<stop  offset="0.8602" style="stop-color:#1E4C5A"/>
	<stop  offset="1" style="stop-color:#183C52"/>
</linearGradient>
<path class="st13" d="M8.79,10.17"/>
<linearGradient id="SVGID_15_" gradientUnits="userSpaceOnUse" x1="11.1026" y1="7.6389" x2="11.1026" y2="7.6389">
	<stop  offset="0" style="stop-color:#41A185"/>
	<stop  offset="0.2773" style="stop-color:#378979"/>
	<stop  offset="0.8602" style="stop-color:#1E4C5A"/>
	<stop  offset="1" style="stop-color:#183C52"/>
</linearGradient>
<path class="st14" d="M11.1,7.64"/>
<linearGradient id="SVGID_16_" gradientUnits="userSpaceOnUse" x1="38.6883" y1="57.2836" x2="52.1672" y2="57.2836">
	<stop  offset="1.331947e-07" style="stop-color:#21525D"/>
	<stop  offset="0.3451" style="stop-color:#2B6A69"/>
	<stop  offset="1" style="stop-color:#41A185"/>
</linearGradient>
<polygon class="st15" points="38.69,52.18 52.17,52.37 44.89,62.38 "/>
<linearGradient id="SVGID_17_" gradientUnits="userSpaceOnUse" x1="13.9473" y1="6.5563" x2="27.1924" y2="6.5563">
	<stop  offset="1.331947e-07" style="stop-color:#21525D"/>
	<stop  offset="0.2732" style="stop-color:#2B6A69"/>
	<stop  offset="0.7648" style="stop-color:#409E83"/>
	<stop  offset="1" style="stop-color:#41A185"/>
</linearGradient>
<polygon class="st16" points="21.89,1.22 27.19,11.89 13.95,10.52 "/>
<linearGradient id="SVGID_18_" gradientUnits="userSpaceOnUse" x1="9.2641" y1="14.9642" x2="16.6404" y2="14.9642">
	<stop  offset="0.0939" style="stop-color:#3B937E"/>
	<stop  offset="1" style="stop-color:#41A185"/>
</linearGradient>
<polygon class="st17" points="16.64,17.53 11.36,12.4 10.84,12.95 9.26,14.81 11.71,17.1 "/>
<path class="st18" d="M56.95,47.91c0,0-1.66,2.61-1.85,2.65C54.67,50.16,56.95,47.91,56.95,47.91z"/>
<path class="st18" d="M49.34,45.7"/>
<polygon class="st18" points="49.96,45.35 55.05,50.5 56.95,47.91 53.27,44.21 "/>
</svg>
