<svg id="Camada_1" data-name="Camada 1" xmlns="http://www.w3.org/2000/svg" xmlns:xlink="http://www.w3.org/1999/xlink" viewBox="0 0 157.79 153.3"><defs><style>.cls-1{fill:url(#Gradiente_sem_nome_49);}.cls-2{fill:url(#Gradiente_sem_nome_6);}.cls-3{fill:url(#Gradiente_sem_nome_22);}.cls-4{fill:url(#Gradiente_sem_nome_28);}.cls-5{fill:url(#Gradiente_sem_nome_15);}.cls-6{fill:url(#Gradiente_sem_nome_19);}.cls-10,.cls-11,.cls-12,.cls-13,.cls-14,.cls-15,.cls-22,.cls-7,.cls-8,.cls-9{fill:none;stroke-miterlimit:10;}.cls-10,.cls-13,.cls-14,.cls-15,.cls-22,.cls-7,.cls-8,.cls-9{stroke-width:2px;}.cls-7{stroke:url(#Gradiente_sem_nome_32);}.cls-8{stroke:url(#Gradiente_sem_nome_32-2);}.cls-9{stroke:url(#Gradiente_sem_nome_32-3);}.cls-10{stroke:url(#Gradiente_sem_nome_32-4);}.cls-11,.cls-12{stroke-width:5px;}.cls-11{stroke:url(#Gradiente_sem_nome_35);}.cls-12{stroke:url(#Gradiente_sem_nome_13);}.cls-13{stroke:url(#Gradiente_sem_nome_13-2);}.cls-14{stroke:url(#Gradiente_sem_nome_13-3);}.cls-15{stroke:url(#Gradiente_sem_nome_13-4);}.cls-16{fill:url(#Gradiente_sem_nome_5);}.cls-17{fill:url(#Gradiente_sem_nome_43);}.cls-18{fill:url(#Gradiente_sem_nome_27);}.cls-19{fill:#3e9b82;}.cls-20{fill:#4e524c;}.cls-21{fill:url(#Gradiente_sem_nome_13-5);}.cls-22{stroke:url(#Gradiente_sem_nome_13-6);}</style><linearGradient id="Gradiente_sem_nome_49" x1="110.76" y1="72.62" x2="74.13" y2="35.68" gradientUnits="userSpaceOnUse"><stop offset="0" stop-color="#3e9b82"/><stop offset="0.18" stop-color="#3c957f"/><stop offset="0.4" stop-color="#358677"/><stop offset="0.66" stop-color="#2b6b6a"/><stop offset="0.93" stop-color="#1c4758"/><stop offset="1" stop-color="#183c52"/></linearGradient><linearGradient id="Gradiente_sem_nome_6" x1="-1072.43" y1="65.28" x2="-1115.17" y2="65.28" gradientTransform="matrix(-1, 0, 0, 1, -1006.45, -34.3)" gradientUnits="userSpaceOnUse"><stop offset="0.01" stop-color="#3d9380"/><stop offset="0.39" stop-color="#347b74"/><stop offset="1" stop-color="#224d5c"/></linearGradient><linearGradient id="Gradiente_sem_nome_22" x1="-1102.86" y1="65.28" x2="-1064.34" y2="65.28" gradientTransform="matrix(-1, 0, 0, 1, -988.43, 0)" gradientUnits="userSpaceOnUse"><stop offset="0" stop-color="#41a185"/><stop offset="0.45" stop-color="#38897a"/><stop offset="1" stop-color="#2c6669"/></linearGradient><linearGradient id="Gradiente_sem_nome_28" x1="997.27" y1="-217.52" x2="1005.82" y2="-226.14" gradientTransform="matrix(1, 0, 0, -1, -923.11, -166.63)" gradientUnits="userSpaceOnUse"><stop offset="0" stop-color="#3e9b82"/><stop offset="0.29" stop-color="#348376"/><stop offset="0.91" stop-color="#1c4657"/><stop offset="1" stop-color="#183c52"/></linearGradient><linearGradient id="Gradiente_sem_nome_15" x1="-1094.56" y1="97.97" x2="-1040.11" y2="97.97" gradientTransform="matrix(-1, 0, 0, 1, -1006.45, -34.3)" gradientUnits="userSpaceOnUse"><stop offset="0" stop-color="#3d9480"/><stop offset="0.36" stop-color="#347c74"/><stop offset="1" stop-color="#204859"/></linearGradient><linearGradient id="Gradiente_sem_nome_19" x1="1004.34" y1="-235.17" x2="1021.94" y2="-218.58" gradientTransform="matrix(1, 0, 0, -1, -905.08, -132.33)" gradientUnits="userSpaceOnUse"><stop offset="0" stop-color="#41a185"/><stop offset="0.33" stop-color="#388979"/><stop offset="1" stop-color="#234f5d"/></linearGradient><linearGradient id="Gradiente_sem_nome_32" x1="63.63" y1="52.95" x2="63.63" y2="52.95" gradientUnits="userSpaceOnUse"><stop offset="0" stop-color="#385c6b"/><stop offset="0.29" stop-color="#437478"/><stop offset="0.91" stop-color="#60b19a"/><stop offset="1" stop-color="#64bb9f"/></linearGradient><linearGradient id="Gradiente_sem_nome_32-2" x1="65.78" y1="55.3" x2="65.78" y2="55.3" xlink:href="#Gradiente_sem_nome_32"/><linearGradient id="Gradiente_sem_nome_32-3" x1="62.74" y1="45.42" x2="62.74" y2="45.42" xlink:href="#Gradiente_sem_nome_32"/><linearGradient id="Gradiente_sem_nome_32-4" x1="79.21" y1="61.58" x2="79.21" y2="61.58" xlink:href="#Gradiente_sem_nome_32"/><linearGradient id="Gradiente_sem_nome_35" x1="79.06" y1="74.74" x2="140.24" y2="74.74" gradientUnits="userSpaceOnUse"><stop offset="0" stop-color="#3e9b82"/><stop offset="0.98" stop-color="#3e9b82"/></linearGradient><linearGradient id="Gradiente_sem_nome_13" x1="48.85" y1="90.25" x2="111.6" y2="90.25" gradientUnits="userSpaceOnUse"><stop offset="0" stop-color="#41a185"/><stop offset="0.28" stop-color="#378979"/><stop offset="0.86" stop-color="#1e4c5a"/><stop offset="1" stop-color="#183c52"/></linearGradient><linearGradient id="Gradiente_sem_nome_13-2" x1="136.06" y1="123.78" x2="136.06" y2="123.78" xlink:href="#Gradiente_sem_nome_13"/><linearGradient id="Gradiente_sem_nome_13-3" x1="57.92" y1="48.48" x2="57.92" y2="48.48" xlink:href="#Gradiente_sem_nome_13"/><linearGradient id="Gradiente_sem_nome_13-4" x1="61.59" y1="44.47" x2="61.59" y2="44.47" xlink:href="#Gradiente_sem_nome_13"/><linearGradient id="Gradiente_sem_nome_5" x1="87.29" y1="88.85" x2="108.65" y2="88.85" gradientUnits="userSpaceOnUse"><stop offset="0" stop-color="#21525d"/><stop offset="0.35" stop-color="#2b6a69"/><stop offset="1" stop-color="#41a185"/></linearGradient><linearGradient id="Gradiente_sem_nome_43" x1="48.08" y1="8.46" x2="69.07" y2="8.46" gradientUnits="userSpaceOnUse"><stop offset="0" stop-color="#21525d"/><stop offset="0.27" stop-color="#2b6a69"/><stop offset="0.76" stop-color="#409e83"/><stop offset="1" stop-color="#41a185"/></linearGradient><linearGradient id="Gradiente_sem_nome_27" x1="40.65" y1="21.78" x2="52.34" y2="21.78" gradientUnits="userSpaceOnUse"><stop offset="0.09" stop-color="#3b937e"/><stop offset="1" stop-color="#41a185"/></linearGradient><linearGradient id="Gradiente_sem_nome_13-5" x1="97.11" y1="168.41" x2="110.42" y2="154.98" xlink:href="#Gradiente_sem_nome_13"/><linearGradient id="Gradiente_sem_nome_13-6" x1="19.64" y1="212.55" x2="19.64" y2="212.55" xlink:href="#Gradiente_sem_nome_13"/></defs><polygon class="cls-1" points="71.98 37.8 105.72 70.49 112.9 70.49 79.58 37.8 71.98 37.8"/><polygon class="cls-2" points="57.89 24.16 71.98 37.8 96.41 37.8 96.41 24.16 57.89 24.16"/><path class="cls-3" d="M75.91,58.46,90,72.1C89.63,61,114.43,58.46,114.43,58.46Z" transform="translate(-18.02 -34.3)"/><polygon class="cls-4" points="84.33 56.85 50.59 24.16 43.41 24.16 76.73 56.85 84.33 56.85"/><polygon class="cls-5" points="60.07 56.85 84.33 56.85 98.42 70.49 60.51 70.49 59.9 70.49 49.34 70.49 49.34 56.85 60.07 56.85"/><path class="cls-6" d="M116.44,104.79,102.35,91.14c.37,11.09-24.43,13.65-24.43,13.65Z" transform="translate(-18.02 -34.3)"/><path class="cls-7" d="M63.63,53" transform="translate(-18.02 -34.3)"/><path class="cls-8" d="M65.78,55.3" transform="translate(-18.02 -34.3)"/><path class="cls-9" d="M62.74,45.42" transform="translate(-18.02 -34.3)"/><path class="cls-10" d="M79.21,61.58" transform="translate(-18.02 -34.3)"/><path class="cls-11" d="M79.9,43.65c.91-.33,1.84-.62,2.78-.88a43.77,43.77,0,0,1,11.86-1.62c23.86,0,43.2,19,43.2,42.38a40.89,40.89,0,0,1-8.92,25.76" transform="translate(-18.02 -34.3)"/><path class="cls-12" d="M110.68,122.85a43.8,43.8,0,0,1-16.14,3.05c-23.85,0-43.19-19-43.19-42.37A41.84,41.84,0,0,1,63.69,53.87" transform="translate(-18.02 -34.3)"/><path class="cls-13" d="M136.06,123.78" transform="translate(-18.02 -34.3)"/><path class="cls-14" d="M57.92,48.48" transform="translate(-18.02 -34.3)"/><path class="cls-15" d="M61.59,44.47" transform="translate(-18.02 -34.3)"/><polygon class="cls-16" points="87.29 80.77 108.65 81.07 97.12 96.94 87.29 80.77"/><polygon class="cls-17" points="60.66 0 69.07 16.92 48.08 14.74 60.66 0"/><polygon class="cls-18" points="52.34 25.86 43.97 17.71 43.15 18.59 40.65 21.54 44.53 25.17 52.34 25.86"/><path class="cls-19" d="M125.48,99.45l7.76,7.63a41,41,0,0,1-2.94,4.21c-.67-.64-6.68-6.61-6.68-6.61Z" transform="translate(-18.02 -34.3)"/><path class="cls-19" d="M122.19,104.8" transform="translate(-18.02 -34.3)"/><path class="cls-20" d="M26.33,169.89H18l17.83-17.83h-14V146.2H50L32.2,164ZM34.89,164H45.58v5.86H29Z" transform="translate(-18.02 -34.3)"/><path class="cls-20" d="M59.86,153.24l3.41,5.65-6.69,11H49.72ZM79,169.93H72.13l-1.41-2.35L61,151.41l3.41-5.62Z" transform="translate(-18.02 -34.3)"/><path class="cls-20" d="M88.31,146.2V155l-5.86-5.87V146.2Zm-5.86,5.62,5.86,5.87v12.2H82.45Z" transform="translate(-18.02 -34.3)"/><path class="cls-21" d="M115.59,160.1v9.77h-5.94V168.3a12.11,12.11,0,0,1-14.52-1.86A11.63,11.63,0,0,1,92.76,153l.27-.61,4.61,4.52,0,.24a7.28,7.28,0,0,0-.07.93,5.81,5.81,0,0,0,1.78,4.18,6,6,0,0,0,4.26,1.75A6.08,6.08,0,0,0,107,163L104.87,160Z" transform="translate(-18.02 -34.3)"/><path class="cls-20" d="M98.52,154.84l-4.21-4.21.28-.34a11.8,11.8,0,0,1,9-4.18,11.55,11.55,0,0,1,6.69,2.11,11.74,11.74,0,0,1,4.87,7.17l.13.59h-6.07l-.13-.28a6.22,6.22,0,0,0-1.31-1.93,5.92,5.92,0,0,0-8.42,0,6.5,6.5,0,0,0-.59.69Z" transform="translate(-18.02 -34.3)"/><path class="cls-20" d="M129,153.24l3.41,5.65-6.69,11H118.9Zm19.14,16.69h-6.86l-1.42-2.35-9.76-16.17,3.42-5.62Z" transform="translate(-18.02 -34.3)"/><path class="cls-20" d="M175.81,169.93H166.7l-.14-.14-9.1-9.07v0l-5.86-5.87v-8.65h15.83a6.15,6.15,0,0,1,1.34.13,6.92,6.92,0,0,1,3.52,1.9,7,7,0,0,1,1.83,3.28,6.2,6.2,0,0,1,.2,1.62,5.78,5.78,0,0,1,0,.72,7.31,7.31,0,0,1-7.17,7.11h-.38Zm-24.15-12.45,5.87,5.86v6.52h-5.87Zm14.7-2.38a1.43,1.43,0,0,0,.41,0l.31-.1a2,2,0,0,0,.73-.48l.1-.11.1-.1a.11.11,0,0,0,0-.1l.1-.21a2.44,2.44,0,0,0,.17-.86v-.21a.51.51,0,0,0,0-.21l-.1-.31H157.91l2.79,2.8h5.62Z" transform="translate(-18.02 -34.3)"/><path class="cls-20" d="M18.68,172.71h9.48v2H21.32V179h5.33v2H21.32v6.46H18.68Z" transform="translate(-18.02 -34.3)"/><path class="cls-20" d="M30.61,172.71h2.64v14.76H30.61Z" transform="translate(-18.02 -34.3)"/><path class="cls-20" d="M50,172.69v14.78H47.31l-7.94-11v11H36.73V172.69h2.64l7.94,11v-11Z" transform="translate(-18.02 -34.3)"/><path class="cls-20" d="M63.13,184.45H56.39l-1.16,3H52.48l5.77-14.78h3l5.77,14.78H64.29Zm-3.36-8.83-2.64,6.86h5.26Z" transform="translate(-18.02 -34.3)"/><path class="cls-20" d="M82.8,172.69v14.78H80.16l-8-11v11H69.57V172.69h2.64l8,11v-11Z" transform="translate(-18.02 -34.3)"/><path class="cls-20" d="M93.62,172.52c3.35,0,6.25,1.55,7.48,4.44H97.92a4.54,4.54,0,0,0-4.3-2.32,5.43,5.43,0,1,0,0,10.85,4.55,4.55,0,0,0,4.3-2.31h3.18c-1.23,2.89-4.13,4.42-7.48,4.42-4.55,0-8.23-3.1-8.23-7.54S89.07,172.52,93.62,172.52Z" transform="translate(-18.02 -34.3)"/><path class="cls-20" d="M113.07,174.66h-6.25V179h5.56v2h-5.56v4.52h6.25v2h-8.9V172.69h8.9Z" transform="translate(-18.02 -34.3)"/><path class="cls-22" d="M19.64,212.55" transform="translate(-18.02 -34.3)"/></svg>