<svg id="Camada_1" data-name="Camada 1" xmlns="http://www.w3.org/2000/svg" xmlns:xlink="http://www.w3.org/1999/xlink" viewBox="0 0 167.54 56.63"><defs><style>.cls-1{fill:#4e524c;}.cls-2{fill:url(#Gradiente_sem_nome_13);}.cls-3{fill:url(#Gradiente_sem_nome_49);}.cls-4{fill:url(#Gradiente_sem_nome_6);}.cls-5{fill:url(#Gradiente_sem_nome_22);}.cls-6{fill:url(#Gradiente_sem_nome_28);}.cls-7{fill:url(#Gradiente_sem_nome_15);}.cls-8{fill:url(#Gradiente_sem_nome_19);}.cls-10,.cls-11,.cls-12,.cls-13,.cls-14,.cls-15,.cls-16,.cls-17,.cls-18,.cls-9{fill:none;stroke-miterlimit:10;}.cls-10,.cls-11,.cls-12,.cls-15,.cls-17,.cls-18,.cls-9{stroke-width:2px;}.cls-9{stroke:url(#Gradiente_sem_nome_32);}.cls-10{stroke:url(#Gradiente_sem_nome_32-2);}.cls-11{stroke:url(#Gradiente_sem_nome_32-3);}.cls-12{stroke:url(#Gradiente_sem_nome_32-4);}.cls-13,.cls-14,.cls-16{stroke-width:4px;}.cls-13{stroke:url(#Gradiente_sem_nome_35);}.cls-14{stroke:url(#Gradiente_sem_nome_13-2);}.cls-15{stroke:url(#Gradiente_sem_nome_13-3);}.cls-16{stroke:url(#Gradiente_sem_nome_13-4);}.cls-17{stroke:url(#Gradiente_sem_nome_13-5);}.cls-18{stroke:url(#Gradiente_sem_nome_13-6);}.cls-19{fill:url(#Gradiente_sem_nome_5);}.cls-20{fill:url(#Gradiente_sem_nome_43);}.cls-21{fill:url(#Gradiente_sem_nome_27);}.cls-22{fill:#3e9b82;}</style><linearGradient id="Gradiente_sem_nome_13" x1="134.17" y1="66.77" x2="143.11" y2="57.75" gradientUnits="userSpaceOnUse"><stop offset="0" stop-color="#41a185"/><stop offset="0.28" stop-color="#378979"/><stop offset="0.86" stop-color="#1e4c5a"/><stop offset="1" stop-color="#183c52"/></linearGradient><linearGradient id="Gradiente_sem_nome_49" x1="47.23" y1="42.42" x2="25.83" y2="20.84" gradientUnits="userSpaceOnUse"><stop offset="0" stop-color="#3e9b82"/><stop offset="0.18" stop-color="#3c957f"/><stop offset="0.4" stop-color="#358677"/><stop offset="0.66" stop-color="#2b6b6a"/><stop offset="0.93" stop-color="#1c4758"/><stop offset="1" stop-color="#183c52"/></linearGradient><linearGradient id="Gradiente_sem_nome_6" x1="-1018.99" y1="55.8" x2="-1043.96" y2="55.8" gradientTransform="matrix(-1, 0, 0, 1, -997.92, -37.7)" gradientUnits="userSpaceOnUse"><stop offset="0.01" stop-color="#3d9380"/><stop offset="0.39" stop-color="#347b74"/><stop offset="1" stop-color="#224d5c"/></linearGradient><linearGradient id="Gradiente_sem_nome_22" x1="-1036.76" y1="55.8" x2="-1014.27" y2="55.8" gradientTransform="matrix(-1, 0, 0, 1, -978.43, 0)" gradientUnits="userSpaceOnUse"><stop offset="0" stop-color="#41a185"/><stop offset="0.45" stop-color="#38897a"/><stop offset="1" stop-color="#2c6669"/></linearGradient><linearGradient id="Gradiente_sem_nome_28" x1="950.43" y1="-295.76" x2="955.42" y2="-300.8" gradientTransform="matrix(1, 0, 0, -1, -924.57, -266.03)" gradientUnits="userSpaceOnUse"><stop offset="0" stop-color="#3e9b82"/><stop offset="0.29" stop-color="#348376"/><stop offset="0.91" stop-color="#1c4657"/><stop offset="1" stop-color="#183c52"/></linearGradient><linearGradient id="Gradiente_sem_nome_15" x1="-1031.92" y1="74.9" x2="-1000.11" y2="74.9" gradientTransform="matrix(-1, 0, 0, 1, -997.92, -37.7)" gradientUnits="userSpaceOnUse"><stop offset="0" stop-color="#3d9480"/><stop offset="0.36" stop-color="#347c74"/><stop offset="1" stop-color="#204859"/></linearGradient><linearGradient id="Gradiente_sem_nome_19" x1="954.56" y1="-306.07" x2="964.84" y2="-296.38" gradientTransform="matrix(1, 0, 0, -1, -905.08, -228.33)" gradientUnits="userSpaceOnUse"><stop offset="0" stop-color="#41a185"/><stop offset="0.33" stop-color="#388979"/><stop offset="1" stop-color="#234f5d"/></linearGradient><linearGradient id="Gradiente_sem_nome_32" x1="28.66" y1="48.6" x2="28.66" y2="48.6" gradientUnits="userSpaceOnUse"><stop offset="0" stop-color="#385c6b"/><stop offset="0.29" stop-color="#437478"/><stop offset="0.91" stop-color="#60b19a"/><stop offset="1" stop-color="#64bb9f"/></linearGradient><linearGradient id="Gradiente_sem_nome_32-2" x1="29.92" y1="49.97" x2="29.92" y2="49.97" xlink:href="#Gradiente_sem_nome_32"/><linearGradient id="Gradiente_sem_nome_32-3" x1="28.14" y1="44.2" x2="28.14" y2="44.2" xlink:href="#Gradiente_sem_nome_32"/><linearGradient id="Gradiente_sem_nome_32-4" x1="37.77" y1="53.64" x2="37.77" y2="53.64" xlink:href="#Gradiente_sem_nome_32"/><linearGradient id="Gradiente_sem_nome_35" x1="37.43" y1="61.23" x2="73.89" y2="61.23" gradientUnits="userSpaceOnUse"><stop offset="0" stop-color="#3e9b82"/><stop offset="0.98" stop-color="#3e9b82"/></linearGradient><linearGradient id="Gradiente_sem_nome_13-2" x1="19.49" y1="70.47" x2="56.88" y2="70.47" xlink:href="#Gradiente_sem_nome_13"/><linearGradient id="Gradiente_sem_nome_13-3" x1="70.98" y1="89.97" x2="70.98" y2="89.97" xlink:href="#Gradiente_sem_nome_13"/><linearGradient id="Gradiente_sem_nome_13-4" x1="25.33" y1="45.99" x2="25.33" y2="45.99" xlink:href="#Gradiente_sem_nome_13"/><linearGradient id="Gradiente_sem_nome_13-5" x1="82.13" y1="96.42" x2="82.13" y2="96.42" xlink:href="#Gradiente_sem_nome_13"/><linearGradient id="Gradiente_sem_nome_13-6" x1="27.47" y1="43.65" x2="27.47" y2="43.65" xlink:href="#Gradiente_sem_nome_13"/><linearGradient id="Gradiente_sem_nome_5" x1="33.52" y1="51.91" x2="46" y2="51.91" gradientUnits="userSpaceOnUse"><stop offset="0" stop-color="#21525d"/><stop offset="0.35" stop-color="#2b6a69"/><stop offset="1" stop-color="#41a185"/></linearGradient><linearGradient id="Gradiente_sem_nome_43" x1="10.62" y1="4.94" x2="22.88" y2="4.94" gradientUnits="userSpaceOnUse"><stop offset="0" stop-color="#21525d"/><stop offset="0.27" stop-color="#2b6a69"/><stop offset="0.76" stop-color="#409e83"/><stop offset="1" stop-color="#41a185"/></linearGradient><linearGradient id="Gradiente_sem_nome_27" x1="6.28" y1="12.73" x2="13.11" y2="12.73" gradientUnits="userSpaceOnUse"><stop offset="0.09" stop-color="#3b937e"/><stop offset="1" stop-color="#41a185"/></linearGradient></defs><path class="cls-1" d="M86.63,67.77H81.05l12-12H83.64V51.85h18.9l-12,12Zm5.74-3.94h7.18v3.94H88.44Z" transform="translate(-19.49 -37.7)"/><path class="cls-1" d="M109.15,56.58l2.29,3.8-4.5,7.39h-4.61ZM122,67.79h-4.61l-1-1.57-6.55-10.87,2.29-3.78Z" transform="translate(-19.49 -37.7)"/><path class="cls-1" d="M128.26,51.85v5.91l-3.94-3.94v-2Zm-3.94,3.78,3.94,3.94v8.2h-3.94Z" transform="translate(-19.49 -37.7)"/><path class="cls-2" d="M146.58,61.19v6.56h-4V66.69a8,8,0,0,1-4.05,1.09,8.06,8.06,0,0,1-5.7-2.33,7.85,7.85,0,0,1-1.6-9l.19-.41,3.1,3,0,.16c0,.21,0,.41,0,.62a3.91,3.91,0,0,0,1.19,2.81,4,4,0,0,0,2.86,1.18,4.11,4.11,0,0,0,2.32-.72l-1.45-2Z" transform="translate(-19.49 -37.7)"/><path class="cls-1" d="M135.11,57.66l-2.82-2.83.18-.23a7.93,7.93,0,0,1,6.07-2.81,7.78,7.78,0,0,1,4.5,1.42A7.9,7.9,0,0,1,146.3,58l.09.39h-4.07l-.1-.19a4.08,4.08,0,0,0-3.7-2.47,4,4,0,0,0-2.83,1.18,3.39,3.39,0,0,0-.39.46Z" transform="translate(-19.49 -37.7)"/><path class="cls-1" d="M155.61,56.58l2.3,3.8-4.5,7.39H148.8Zm12.86,11.21h-4.61l-1-1.57-6.55-10.87,2.29-3.78Z" transform="translate(-19.49 -37.7)"/><path class="cls-1" d="M187,67.79h-6.12l-.09-.09-6.12-6.09v0l-3.94-3.94V51.88H181.4a3.93,3.93,0,0,1,.9.09,4.6,4.6,0,0,1,2.36,1.27,4.68,4.68,0,0,1,1.23,2.2,4.4,4.4,0,0,1,.14,1.09,4,4,0,0,1,0,.49,5,5,0,0,1-1.44,3.33,4.85,4.85,0,0,1-3.38,1.44h-.26Zm-16.22-8.36,3.94,3.94v4.37h-3.94Zm9.87-1.6a1.37,1.37,0,0,0,.28,0l.21-.07a1.42,1.42,0,0,0,.48-.33l.07-.07.07-.07a.08.08,0,0,0,0-.07l.07-.14a1.57,1.57,0,0,0,.12-.57v-.14a.32.32,0,0,0,0-.14l-.07-.21H175l1.88,1.88h3.78Z" transform="translate(-19.49 -37.7)"/><polygon class="cls-3" points="24.58 22.09 44.29 41.18 48.49 41.18 29.02 22.09 24.58 22.09"/><polygon class="cls-4" points="16.35 14.12 24.58 22.09 38.85 22.09 38.85 14.12 16.35 14.12"/><path class="cls-5" d="M35.84,51.82l8.23,8c-.22-6.48,14.27-8,14.27-8Z" transform="translate(-19.49 -37.7)"/><polygon class="cls-6" points="31.79 33.21 12.08 14.12 7.89 14.12 27.36 33.21 31.79 33.21"/><polygon class="cls-7" points="17.62 33.21 31.79 33.21 40.02 41.18 17.88 41.18 17.52 41.18 11.36 41.18 11.36 33.21 17.62 33.21"/><path class="cls-8" d="M59.51,78.88l-8.23-8c.22,6.48-14.27,8-14.27,8Z" transform="translate(-19.49 -37.7)"/><path class="cls-9" d="M28.66,48.6" transform="translate(-19.49 -37.7)"/><path class="cls-10" d="M29.92,50" transform="translate(-19.49 -37.7)"/><path class="cls-1" d="M81.49,69.66h6.36V71H83.26v2.93h3.58v1.33H83.26v4.33H81.49Z" transform="translate(-19.49 -37.7)"/><path class="cls-1" d="M89.5,69.66h1.78v9.91H89.5Z" transform="translate(-19.49 -37.7)"/><path class="cls-1" d="M102.5,69.64v9.93h-1.78l-5.34-7.4v7.4H93.61V69.64h1.77L100.72,77V69.64Z" transform="translate(-19.49 -37.7)"/><path class="cls-1" d="M111.35,77.55h-4.53l-.78,2h-1.85l3.87-9.93h2.06L114,79.57h-1.87Zm-2.26-5.94-1.77,4.61h3.53Z" transform="translate(-19.49 -37.7)"/><path class="cls-1" d="M124.56,69.64v9.93h-1.78l-5.34-7.4v7.4h-1.77V69.64h1.77L122.78,77V69.64Z" transform="translate(-19.49 -37.7)"/><path class="cls-1" d="M131.82,69.53a5.2,5.2,0,0,1,5,3h-2.14A3,3,0,0,0,131.82,71a3.65,3.65,0,1,0,0,7.29,3.06,3.06,0,0,0,2.89-1.56h2.14a5.19,5.19,0,0,1-5,3c-3,0-5.53-2.08-5.53-5.07S128.77,69.53,131.82,69.53Z" transform="translate(-19.49 -37.7)"/><path class="cls-1" d="M144.89,71h-4.2v2.91h3.73v1.33h-3.73v3h4.2v1.32h-6V69.64h6Z" transform="translate(-19.49 -37.7)"/><path class="cls-11" d="M28.14,44.2" transform="translate(-19.49 -37.7)"/><path class="cls-12" d="M37.77,53.64" transform="translate(-19.49 -37.7)"/><path class="cls-13" d="M38.1,43.16c.54-.19,1.08-.36,1.63-.51a25.49,25.49,0,0,1,6.93-.95A25,25,0,0,1,71.89,66.46a23.84,23.84,0,0,1-5.21,15.05" transform="translate(-19.49 -37.7)"/><path class="cls-14" d="M56.15,89.43a25.64,25.64,0,0,1-9.43,1.79A25,25,0,0,1,21.49,66.46,24.42,24.42,0,0,1,28.7,49.14" transform="translate(-19.49 -37.7)"/><path class="cls-15" d="M71,90" transform="translate(-19.49 -37.7)"/><path class="cls-16" d="M25.33,46" transform="translate(-19.49 -37.7)"/><path class="cls-17" d="M82.13,96.42" transform="translate(-19.49 -37.7)"/><path class="cls-18" d="M27.47,43.65" transform="translate(-19.49 -37.7)"/><polygon class="cls-19" points="33.52 47.19 46 47.36 39.26 56.63 33.52 47.19"/><polygon class="cls-20" points="17.97 0 22.88 9.88 10.62 8.61 17.97 0"/><polygon class="cls-21" points="13.11 15.11 8.22 10.35 7.74 10.86 6.28 12.58 8.55 14.7 13.11 15.11"/><path class="cls-22" d="M62.87,78.89" transform="translate(-19.49 -37.7)"/><line class="cls-22" x1="48.59" y1="45.33" x2="50.3" y2="42.84"/><polygon class="cls-22" points="44.26 41.14 48.61 45.29 50.28 42.96 46.27 39.7 44.26 41.14"/></svg>