<svg id="Camada_1" data-name="Camada 1" xmlns="http://www.w3.org/2000/svg" xmlns:xlink="http://www.w3.org/1999/xlink" viewBox="0 0 27.95 30.27"><defs><style>.cls-1{fill:#aa0653;}.cls-1,.cls-2,.cls-4{fill-rule:evenodd;}.cls-2{fill:url(#Gradiente_sem_nome_20);}.cls-3{fill:#03584f;}.cls-4{fill:url(#Gradiente_sem_nome_26);}</style><linearGradient id="Gradiente_sem_nome_20" x1="1.92" y1="23.3" x2="25.53" y2="23.3" gradientUnits="userSpaceOnUse"><stop offset="0" stop-color="#b30d5b"/><stop offset="1" stop-color="#f74699"/></linearGradient><linearGradient id="Gradiente_sem_nome_26" x1="6.21" y1="8.59" x2="29.87" y2="8.59" gradientUnits="userSpaceOnUse"><stop offset="0" stop-color="#009c8c"/><stop offset="1" stop-color="#026d62"/></linearGradient></defs><path class="cls-1" d="M22.65,18.44a7.81,7.81,0,0,0-1.75-.32c-1.5-.09-3.41,0-3.41,0l-1.36-4.8s3.94-.34,6.27.54a2.73,2.73,0,0,1,2,2.37l-1.73,2.2Z" transform="translate(-1.92 -0.83)"/><path class="cls-2" d="M9.31,24.3l-.66-2.1L1.92,28.36l9.4,2.75L10.71,29S24.45,25,25.53,20.29c-.24-1-1.31-4.79-1.31-4.79a8.76,8.76,0,0,1-3.12,3.68c-6.13,3.21-7,3.64-11.79,5.12Z" transform="translate(-1.92 -0.83)"/><path class="cls-3" d="M14.17,13.52l.1.35,1.19,4.34s-7,.8-8-2a3.08,3.08,0,0,1,2.17-3,37.89,37.89,0,0,0,4.54.17" transform="translate(-1.92 -0.83)"/><path class="cls-4" d="M22.46,7.66l.64,2.1,6.77-6.11L20.49.83,21.09,3S7.32,6.83,6.21,11.54c.22,1,1.28,4.81,1.28,4.81a8.67,8.67,0,0,1,3.14-3.66C16.78,9.52,17.7,9.1,22.46,7.66Z" transform="translate(-1.92 -0.83)"/></svg>